<?xml version="1.0" encoding="utf-8"?>
<!-- Generator: Adobe Illustrator 28.0.0, SVG Export Plug-In . SVG Version: 6.00 Build 0)  -->
<svg version="1.1" id="Layer_1" xmlns="http://www.w3.org/2000/svg" xmlns:xlink="http://www.w3.org/1999/xlink" x="0px" y="0px"
	 viewBox="0 0 85 34" style="enable-background:new 0 0 85 34;" xml:space="preserve">
<style type="text/css">
	.st0{fill:#FFB900;}
	.st1{fill:#FFFFFF;}
</style>
<path class="st0" d="M1.1,6.2h12.3v2.9H4.5v4.8h7.8v2.9H4.5v6.9H1.2V6.2H1.1z"/>
<path class="st0" d="M14.6,21.9v-2.1l1.7-1.7h4.7v-1.2l-0.6-0.6h-2.8l-0.4,0.6v0.6h-2.4v-1.1l2-2h4.8l2,2v7.3h-2.2v-1.3l-1.3,1.3
	h-3.6L14.6,21.9z M19.7,21.7l1.3-1.3v-0.7h-3.6l-0.6,0.6v0.9l0.4,0.4h2.3V21.7z"/>
<path class="st0" d="M25.6,14.3h2.2v1.6l1.6-1.6h3l2.1,2.1v7.2h-2.4v-6.6l-0.7-0.7h-1.6l-1.8,1.8v5.4h-2.4V14.3z"/>
<path class="st1" d="M37.2,6.2h3.3v7.3h2.7l4.2-7.3h3.8l-5.1,8.7l5.6,8.8h-3.9l-4.6-7.2h-2.7v7.2h-3.3C37.2,23.7,37.2,6.2,37.2,6.2z
	"/>
<rect x="37.2" y="19.9" class="st1" width="3.3" height="7.7"/>
<path class="st1" d="M52.8,21.7v-7.3h2.4v6.6l0.7,0.7h1.4l1.8-1.8v-5.3h2.4v9.3h-2.2v-1.6l-1.6,1.6h-3L52.8,21.7z"/>
<path class="st1" d="M63.7,21.7v-5.4l1.9-1.9h5.3l1.9,1.9v5.4l-1.9,1.9h-5.3L63.7,21.7z M69.8,21.5l0.7-0.7V17l-0.7-0.7h-3L66.2,17
	v3.9l0.7,0.7H69.8z"/>
<path class="st1" d="M82,14.4h-5.2l-1.9,1.9v5.4l1.9,1.9h3.4l1.3-1.3v2l-0.9,0.9H42.8v2.4h38.8l2.3-2.3v-9L82,14.4z M81.5,19.8
	l-1.7,1.8h-2l-0.7-0.7v-3.8l0.7-0.7h3l0.7,0.7V19.8z"/>
<rect x="10.5" y="6.2" class="st0" width="24" height="2.9"/>
<rect x="53.2" y="6.2" class="st0" width="30.8" height="2.9"/>
<rect x="16.7" y="9.5" transform="matrix(6.123234e-17 -1 1 6.123234e-17 -8.492 44.3657)" class="st1" width="2.4" height="33.8"/>
</svg>
