<?xml version="1.0" encoding="utf-8"?>
<!-- Generator: Adobe Illustrator 28.0.0, SVG Export Plug-In . SVG Version: 6.00 Build 0)  -->
<svg version="1.1" id="Layer_1" xmlns="http://www.w3.org/2000/svg" xmlns:xlink="http://www.w3.org/1999/xlink" x="0px" y="0px"
	 viewBox="0 0 30 30" style="enable-background:new 0 0 30 30;" xml:space="preserve">
<style type="text/css">
	.st0{fill:#03015C;}
	.st1{fill:#ABA8FF;}
</style>
<g>
	<path class="st0" d="M25.1,0H4.9C2.2,0,0,2.2,0,4.9v20.3C0,27.8,2.2,30,4.9,30h20.3c2.7,0,4.9-2.2,4.9-4.9V4.9
		C30,2.2,27.8,0,25.1,0z"/>
	<g>
		<path class="st1" d="M9.4,8.8h2.5l4,12.2h-2.3l-1.9-6.5c-0.4-1.3-0.7-2.7-1.1-4h-0.1c-0.3,1.3-0.7,2.7-1.1,4L7.6,21H5.4L9.4,8.8z
			 M7.8,16h5.7v1.7H7.8V16z"/>
		<path class="st1" d="M16.6,16.4c0-3,2.1-4.8,4.2-4.8c2.5,0,3.8,1.8,3.8,4.3c0,0.4,0,0.8-0.1,1h-5.8c0.2,1.6,1.2,2.5,2.7,2.5
			c0.8,0,1.5-0.2,2.1-0.7l0.7,1.3c-0.9,0.6-2,1-3.1,1C18.6,21.2,16.6,19.4,16.6,16.4z M22.7,15.5c0-1.4-0.6-2.3-1.9-2.3
			c-1.1,0-2,0.8-2.2,2.3H22.7z"/>
	</g>
</g>
</svg>
