<?xml version="1.0" encoding="utf-8"?>
<!-- Generator: Adobe Illustrator 28.0.0, SVG Export Plug-In . SVG Version: 6.00 Build 0)  -->
<svg version="1.1" id="Layer_1" xmlns="http://www.w3.org/2000/svg" xmlns:xlink="http://www.w3.org/1999/xlink" x="0px" y="0px"
	 viewBox="0 0 30 30" style="enable-background:new 0 0 30 30;" xml:space="preserve">
<style type="text/css">
	.st0{fill:#350403;}
	.st1{fill:#EBA841;}
</style>
<g>
	<path class="st0" d="M25.1,0H4.9C2.2,0,0,2.2,0,4.9v20.3C0,27.8,2.2,30,4.9,30h20.3c2.7,0,4.9-2.2,4.9-4.9V4.9
		C30,2.2,27.8,0,25.1,0z"/>
	<g>
		<path class="st1" d="M11.9,9.4h2.5l4,12.2h-2.3l-1.9-6.5c-0.4-1.3-0.7-2.7-1.1-4h-0.1c-0.3,1.3-0.7,2.7-1.1,4l-1.9,6.5H7.9
			L11.9,9.4z M10.2,16.6H16v1.7h-5.7V16.6z"/>
		<path class="st1" d="M19.4,9.6c0-0.7,0.6-1.2,1.3-1.2c0.8,0,1.3,0.5,1.3,1.2c0,0.7-0.6,1.2-1.3,1.2C20,10.8,19.4,10.3,19.4,9.6z
			 M19.7,12.4h2.1v9.1h-2.1V12.4z"/>
	</g>
</g>
</svg>
