<?xml version="1.0" encoding="utf-8"?>
<!-- Generator: Adobe Illustrator 28.0.0, SVG Export Plug-In . SVG Version: 6.00 Build 0)  -->
<svg version="1.1" id="Layer_1" xmlns="http://www.w3.org/2000/svg" xmlns:xlink="http://www.w3.org/1999/xlink" x="0px" y="0px"
	 viewBox="0 0 24 20" style="enable-background:new 0 0 24 20;" xml:space="preserve">
<style type="text/css">
	.st0{fill:#5C50E4;}
</style>
<path class="st0" d="M10.1,8.9L13.6,3c-0.5-0.1-1-0.2-1.6-0.2c-1.7,0-3.3,0.6-4.5,1.6L10.1,8.9L10.1,8.9z M18.8,7.8
	c-0.7-2.1-2.3-3.8-4.3-4.6l-2.6,4.6H18.8z M19,8.6h-5.4l0.2,0.4l3.4,5.9c1.2-1.3,1.9-3,1.9-4.8C19.2,9.5,19.1,9,19,8.6z M9.5,10
	L6.7,5.2c-1.2,1.3-1.9,3-1.9,4.8c0,0.5,0.1,1,0.1,1.4h5.4C10.3,11.4,9.5,10,9.5,10z M5.2,12.2c0.7,2.1,2.3,3.8,4.3,4.6l2.6-4.6H5.2z
	 M13.2,12.2L10.4,17c0.5,0.1,1,0.2,1.6,0.2c1.7,0,3.3-0.6,4.5-1.6L13.9,11C13.9,11,13.2,12.2,13.2,12.2z"/>
</svg>
