<?xml version="1.0" encoding="utf-8"?>
<!-- Generator: Adobe Illustrator 28.0.0, SVG Export Plug-In . SVG Version: 6.00 Build 0)  -->
<svg version="1.1" id="Layer_1" xmlns="http://www.w3.org/2000/svg" xmlns:xlink="http://www.w3.org/1999/xlink" x="0px" y="0px"
	 viewBox="0 0 30 30" style="enable-background:new 0 0 30 30;" xml:space="preserve">
<style type="text/css">
	.st0{fill:#47031C;}
	.st1{fill:#DB4173;}
</style>
<g>
	<path class="st0" d="M25.1,0H4.9C2.2,0,0,2.2,0,4.9v20.3C0,27.8,2.2,30,4.9,30h20.3c2.7,0,4.9-2.2,4.9-4.9V4.9
		C30,2.2,27.8,0,25.1,0z"/>
	<g>
		<path class="st1" d="M8.6,9.3h2.2v12.2H8.6V9.3z"/>
		<path class="st1" d="M13.1,16.9c0-3,1.9-4.8,3.9-4.8c1,0,1.7,0.4,2.4,1l-0.1-1.5V8.3h2.1v13.1h-1.8l-0.2-1h-0.1
			c-0.7,0.7-1.6,1.2-2.6,1.2C14.6,21.7,13.1,19.9,13.1,16.9z M19.3,18.9v-4.3c-0.6-0.6-1.2-0.8-1.9-0.8c-1.2,0-2.1,1.1-2.1,3
			c0,2,0.8,3,2.1,3C18.1,19.9,18.7,19.6,19.3,18.9z"/>
	</g>
</g>
</svg>
