<?xml version="1.0" encoding="utf-8"?>
<!-- Generator: Adobe Illustrator 28.0.0, SVG Export Plug-In . SVG Version: 6.00 Build 0)  -->
<svg version="1.1" id="Layer_1" xmlns="http://www.w3.org/2000/svg" xmlns:xlink="http://www.w3.org/1999/xlink" x="0px" y="0px"
	 viewBox="0 0 30 30" style="enable-background:new 0 0 30 30;" xml:space="preserve">
<style type="text/css">
	.st0{fill:#001B39;}
	.st1{fill:#61C0FF;}
</style>
<g>
	<path class="st0" d="M25.1,0H4.9C2.2,0,0,2.2,0,4.9v20.3C0,27.8,2.2,30,4.9,30h20.3c2.7,0,4.9-2.2,4.9-4.9V4.9
		C30,2.2,27.8,0,25.1,0z"/>
	<g>
		<path class="st1" d="M3.1,9.2h2.1v9.9H10v1.7H3.1V9.2z"/>
		<path class="st1" d="M11.8,12.1h1.7l0.2,1.6h0.1c0.6-1.1,1.5-1.8,2.5-1.8c0.4,0,0.7,0.1,1,0.2l-0.4,1.8c-0.3-0.1-0.5-0.1-0.9-0.1
			c-0.7,0-1.5,0.5-2.1,1.8v5.3h-2.1V12.1z"/>
		<path class="st1" d="M18,15c0-3.8,2.4-6.1,5.3-6.1c1.5,0,2.6,0.7,3.4,1.5l-1.1,1.3c-0.6-0.6-1.3-1-2.2-1c-1.9,0-3.3,1.6-3.3,4.2
			c0,2.7,1.3,4.3,3.2,4.3c1,0,1.8-0.5,2.5-1.2l1.1,1.3C26,20.4,24.8,21,23.3,21C20.4,21,18,18.9,18,15z"/>
	</g>
</g>
</svg>
