<?xml version="1.0" encoding="utf-8"?>
<!-- Generator: Adobe Illustrator 28.0.0, SVG Export Plug-In . SVG Version: 6.00 Build 0)  -->
<svg version="1.1" id="Layer_1" xmlns="http://www.w3.org/2000/svg" xmlns:xlink="http://www.w3.org/1999/xlink" x="0px" y="0px"
	 viewBox="0 0 30 30" style="enable-background:new 0 0 30 30;" xml:space="preserve">
<style type="text/css">
	.st0{fill:#04035D;}
	.st1{fill:#A3A2FD;}
</style>
<g>
	<path class="st0" d="M25.1,0H4.9C2.2,0,0,2.2,0,4.9v20.3C0,27.8,2.2,30,4.9,30h20.3c2.7,0,4.9-2.2,4.9-4.9V4.9
		C30,2.2,27.8,0,25.1,0z"/>
	<g>
		<path class="st1" d="M6.9,8.9h3.8c2.7,0,4.7,0.9,4.7,3.8c0,2.7-2,3.9-4.6,3.9H9v4.5H6.9V8.9z M10.6,14.9c1.8,0,2.7-0.7,2.7-2.2
			c0-1.5-0.9-2-2.8-2H9v4.2H10.6z"/>
		<path class="st1" d="M17.5,11.9h1.8l0.2,1.6h0.1c0.7-1.2,1.6-1.9,2.6-1.9c0.5,0,0.8,0.1,1,0.2l-0.4,1.9c-0.3-0.1-0.6-0.1-0.9-0.1
			c-0.7,0-1.6,0.5-2.2,1.9v5.6h-2.1V11.9z"/>
	</g>
</g>
</svg>
