<?xml version="1.0" encoding="utf-8"?>
<!-- Generator: Adobe Illustrator 28.0.0, SVG Export Plug-In . SVG Version: 6.00 Build 0)  -->
<svg version="1.1" id="Layer_1" xmlns="http://www.w3.org/2000/svg" xmlns:xlink="http://www.w3.org/1999/xlink" x="0px" y="0px"
	 viewBox="0 0 30 30" style="enable-background:new 0 0 30 30;" xml:space="preserve">
<style type="text/css">
	.st0{fill:#400131;}
	.st1{fill:#E577DC;}
</style>
<g>
	<path class="st0" d="M25.1,0H4.9C2.2,0,0,2.2,0,4.9v20.3C0,27.8,2.2,30,4.9,30h20.3c2.7,0,4.9-2.2,4.9-4.9V4.9
		C30,2.2,27.8,0,25.1,0z"/>
	<g>
		<path class="st1" d="M9.1,15.2L5.9,9.3h2.4L9.6,12c0.3,0.6,0.6,1.1,0.9,1.9h0.1c0.3-0.7,0.6-1.3,0.8-1.9l1.3-2.7H15l-3.2,6
			l3.5,6.2h-2.4l-1.5-2.9c-0.3-0.6-0.6-1.2-1-2h-0.1c-0.3,0.7-0.6,1.4-0.9,2l-1.4,2.9H5.6L9.1,15.2z"/>
		<path class="st1" d="M16,16.9c0-3,1.9-4.8,3.9-4.8c1,0,1.7,0.4,2.4,1l-0.1-1.5V8.3h2.1v13.1h-1.8l-0.2-1h-0.1
			c-0.7,0.7-1.6,1.2-2.6,1.2C17.5,21.7,16,19.9,16,16.9z M22.2,18.9v-4.3c-0.6-0.6-1.2-0.8-1.9-0.8c-1.2,0-2.1,1.1-2.1,3
			c0,2,0.8,3,2.1,3C21,19.9,21.6,19.6,22.2,18.9z"/>
	</g>
</g>
</svg>
